<?xml version="1.0" encoding="utf-8"?>
<!-- Generator: Adobe Illustrator 23.0.0, SVG Export Plug-In . SVG Version: 6.00 Build 0)  -->
<svg version="1.1" id="Layer_1" xmlns="http://www.w3.org/2000/svg" xmlns:xlink="http://www.w3.org/1999/xlink" x="0px" y="0px"
	 width="144px" height="48.01982px" viewBox="0 0 144 48.01982" style="enable-background:new 0 0 144 48.01982;"
	 xml:space="preserve">
<style type="text/css">
	.st0{fill-rule:evenodd;clip-rule:evenodd;fill:#FFFFFF}
</style>
<title>LOGO/SMALL/White Copy</title>
<desc>Created with Sketch.</desc>
<g>
	<path class="st0" d="M43.50409,31.89616h-4.2132c-4.23334-0.00891-7.6637-3.43689-7.6756-7.67017v-0.29712
		c0.03247-4.21014,3.44379-7.61182,7.65399-7.63239h4.21326c1.74512,0,3.15985-1.41473,3.15985-3.15991V0.1729H33.50586
		c-0.83807,0-1.64178,0.33289-2.23444,0.92548c-0.59259,0.59259-0.92548,1.39636-0.92548,2.23444v5.40155
		c-0.00891,4.23328-3.43689,7.6637-7.67023,7.6756h-0.29706c-4.23334-0.0119-7.66132-3.44232-7.67023-7.6756v-8.5777H0v47.86316
		h14.70844v-8.47504c0.01184-4.23212,3.43811-7.66077,7.67017-7.6756h0.29712c4.23206,0.01483,7.65833,3.44354,7.67023,7.6756
		v5.31512c0,1.74518,1.41473,3.15991,3.15991,3.15991H46.664V35.05608C46.664,33.3109,45.24927,31.89616,43.50409,31.89616z"/>
	<rect x="65.00769" y="0.15666" class="st0" width="13.89819" height="47.84155"/>
	<path class="st0" d="M130.50153-0.00002v27.13745L112.54675,1.35039c-0.59027-0.84827-1.55927-1.35297-2.59271-1.3504H97.22253
		v47.99823h13.50391V20.85539l17.96014,25.78705c0.58978,0.84961,1.55853,1.35577,2.59277,1.35577H144V-0.00002H130.50153z"/>
</g>
</svg>
